
WARNING: using `sdfdiff` angles. Num cameras is 26
/opt/conda/envs/neural-sculpture/lib/python3.7/site-packages/torch/nn/functional.py:3253: UserWarning: nn.functional.upsample_bilinear is deprecated. Use nn.functional.interpolate instead.
  warnings.warn("nn.functional.upsample_bilinear is deprecated. Use nn.functional.interpolate instead.")
WARNING: using `sdfdiff` angles. Num cameras is 26
image loss:  tensor(-2.8008, device='cuda:0', dtype=torch.float16, grad_fn=<MulBackward0>)
image weight:  tensor(65536)
sdf loss:  tensor(0.3333, device='cuda:0', grad_fn=<MulBackward0>)
sdf weight:  tensor(512)
lp loss:  tensor(0.7955, device='cuda:0', grad_fn=<MulBackward0>)
lp weight:  tensor(512)
loss:  0
tolerance: 0.0
sdf grid res: 8  - iteration: 1  -  cam view idx 8  -  cam iters: 8
WARNING: using `sdfdiff` angles. Num cameras is 26
WARNING: using `sdfdiff` angles. Num cameras is 26
image loss:  tensor(-3.3438, device='cuda:0', dtype=torch.float16, grad_fn=<MulBackward0>)
image weight:  tensor(65536)
sdf loss:  tensor(0.3035, device='cuda:0', grad_fn=<MulBackward0>)
sdf weight:  tensor(512)
lp loss:  tensor(0.6783, device='cuda:0', grad_fn=<MulBackward0>)
lp weight:  tensor(512)
loss:  0
tolerance: 0.0
sdf grid res: 8  - iteration: 3  -  cam view idx 16  -  cam iters: 3
image loss:  tensor(-3.0137, device='cuda:0', dtype=torch.float16, grad_fn=<MulBackward0>)
image weight:  tensor(65536)
sdf loss:  tensor(0.2798, device='cuda:0', grad_fn=<MulBackward0>)
sdf weight:  tensor(512)
lp loss:  tensor(0.5803, device='cuda:0', grad_fn=<MulBackward0>)
lp weight:  tensor(512)
loss:  0
tolerance: 0.0
sdf grid res: 8  - iteration: 3  -  cam view idx 16  -  cam iters: 19
WARNING: using `sdfdiff` angles. Num cameras is 26
image loss:  tensor(-2.9785, device='cuda:0', dtype=torch.float16, grad_fn=<MulBackward0>)
image weight:  tensor(65536)
sdf loss:  tensor(0.2567, device='cuda:0', grad_fn=<MulBackward0>)
sdf weight:  tensor(512)
lp loss:  tensor(0.4918, device='cuda:0', grad_fn=<MulBackward0>)
lp weight:  tensor(512)
loss:  0
tolerance: 0.0
sdf grid res: 8  - iteration: 4  -  cam view idx 0  -  cam iters: 3
WARNING: using `sdfdiff` angles. Num cameras is 26
ffmpeg version 4.1.6-1~deb10u1 Copyright (c) 2000-2020 the FFmpeg developers
  built with gcc 8 (Debian 8.3.0-6)
  configuration: --prefix=/usr --extra-version='1~deb10u1' --toolchain=hardened --libdir=/usr/lib/x86_64-linux-gnu --incdir=/usr/include/x86_64-linux-gnu --arch=amd64 --enable-gpl --disable-stripping --enable-avresample --disable-filter=resample --enable-avisynth --enable-gnutls --enable-ladspa --enable-libaom --enable-libass --enable-libbluray --enable-libbs2b --enable-libcaca --enable-libcdio --enable-libcodec2 --enable-libflite --enable-libfontconfig --enable-libfreetype --enable-libfribidi --enable-libgme --enable-libgsm --enable-libjack --enable-libmp3lame --enable-libmysofa --enable-libopenjpeg --enable-libopenmpt --enable-libopus --enable-libpulse --enable-librsvg --enable-librubberband --enable-libshine --enable-libsnappy --enable-libsoxr --enable-libspeex --enable-libssh --enable-libtheora --enable-libtwolame --enable-libvidstab --enable-libvorbis --enable-libvpx --enable-libwavpack --enable-libwebp --enable-libx265 --enable-libxml2 --enable-libxvid --enable-libzmq --enable-libzvbi --enable-lv2 --enable-omx --enable-openal --enable-opengl --enable-sdl2 --enable-libdc1394 --enable-libdrm --enable-libiec61883 --enable-chromaprint --enable-frei0r --enable-libx264 --enable-shared
  libavutil      56. 22.100 / 56. 22.100
  libavcodec     58. 35.100 / 58. 35.100
  libavformat    58. 20.100 / 58. 20.100
  libavdevice    58.  5.100 / 58.  5.100
  libavfilter     7. 40.101 /  7. 40.101
  libavresample   4.  0.  0 /  4.  0.  0
  libswscale      5.  3.100 /  5.  3.100
  libswresample   3.  3.100 /  3.  3.100
  libpostproc    55.  3.100 / 55.  3.100
Input #0, image2, from 'experiments/test-22/*.jpg':
  Duration: 00:00:01.36, start: 0.000000, bitrate: N/A
    Stream #0:0: Video: mjpeg, yuvj420p(pc, bt470bg/unknown/unknown), 256x256 [SAR 1:1 DAR 1:1], 25 fps, 25 tbr, 25 tbn, 25 tbc
Stream mapping:
  Stream #0:0 -> #0:0 (mjpeg (native) -> h264 (libx264))
Press [q] to stop, [?] for help
[swscaler @ 0x556124602c40] deprecated pixel format used, make sure you did set range correctly
[libx264 @ 0x5561245be9c0] using SAR=1/1
[libx264 @ 0x5561245be9c0] using cpu capabilities: MMX2 SSE2Fast SSSE3 SSE4.2 AVX FMA3 BMI2 AVX2
[libx264 @ 0x5561245be9c0] profile High, level 1.2
[libx264 @ 0x5561245be9c0] 264 - core 155 r2917 0a84d98 - H.264/MPEG-4 AVC codec - Copyleft 2003-2018 - http://www.videolan.org/x264.html - options: cabac=1 ref=3 deblock=1:0:0 analyse=0x3:0x113 me=hex subme=7 psy=1 psy_rd=1.00:0.00 mixed_ref=1 me_range=16 chroma_me=1 trellis=1 8x8dct=1 cqm=0 deadzone=21,11 fast_pskip=1 chroma_qp_offset=-2 threads=6 lookahead_threads=1 sliced_threads=0 nr=0 decimate=1 interlaced=0 bluray_compat=0 constrained_intra=0 bframes=3 b_pyramid=2 b_adapt=1 b_bias=0 direct=1 weightb=1 open_gop=0 weightp=2 keyint=250 keyint_min=16 scenecut=40 intra_refresh=0 rc_lookahead=40 rc=crf mbtree=1 crf=25.0 qcomp=0.60 qpmin=0 qpmax=69 qpstep=4 ip_ratio=1.40 aq=1:1.00
Output #0, mp4, to 'experiments/test-22/visualizations/generation.mp4':
  Metadata:
    encoder         : Lavf58.20.100
    Stream #0:0: Video: h264 (libx264) (avc1 / 0x31637661), yuv420p, 256x256 [SAR 1:1 DAR 1:1], q=-1--1, 16 fps, 16384 tbn, 16 tbc
    Metadata:
      encoder         : Lavc58.35.100 libx264
    Side data:
      cpb: bitrate max/min/avg: 0/0/0 buffer size: 0 vbv_delay: -1
frame=   34 fps=0.0 q=-1.0 Lsize=      14kB time=00:00:01.93 bitrate=  60.2kbits/s speed=32.3x
video:13kB audio:0kB subtitle:0kB other streams:0kB global headers:0kB muxing overhead: 9.228578%
[libx264 @ 0x5561245be9c0] frame I:2     Avg QP:17.90  size:   581
[libx264 @ 0x5561245be9c0] frame P:14    Avg QP:22.46  size:   406
[libx264 @ 0x5561245be9c0] frame B:18    Avg QP:25.34  size:   323
[libx264 @ 0x5561245be9c0] consecutive B-frames: 20.6% 23.5%  8.8% 47.1%
[libx264 @ 0x5561245be9c0] mb I  I16..4: 52.1% 45.9%  2.0%
[libx264 @ 0x5561245be9c0] mb P  I16..4:  2.3% 12.0%  2.0%  P16..4:  3.3%  1.7%  0.2%  0.0%  0.0%    skip:78.5%
[libx264 @ 0x5561245be9c0] mb B  I16..4:  1.0%  5.7%  1.1%  B16..8:  8.9%  3.2%  0.3%  direct: 0.3%  skip:79.6%  L0:55.9% L1:42.6% BI: 1.5%
[libx264 @ 0x5561245be9c0] 8x8 transform intra:63.9% inter:69.0%
[libx264 @ 0x5561245be9c0] coded y,uvDC,uvAC intra: 37.6% 0.0% 0.0% inter: 2.4% 0.0% 0.0%
[libx264 @ 0x5561245be9c0] i16 v,h,dc,p: 71%  5% 10% 14%
[libx264 @ 0x5561245be9c0] i8 v,h,dc,ddl,ddr,vr,hd,vl,hu: 24% 13% 22%  5%  8%  9%  8%  7%  5%
[libx264 @ 0x5561245be9c0] i4 v,h,dc,ddl,ddr,vr,hd,vl,hu: 18% 14% 31%  5%  9%  8%  7%  5%  2%
[libx264 @ 0x5561245be9c0] i8c dc,h,v,p: 100%  0%  0%  0%
[libx264 @ 0x5561245be9c0] Weighted P-Frames: Y:7.1% UV:0.0%
[libx264 @ 0x5561245be9c0] ref P L0: 47.1%  2.4% 37.7% 10.4%  2.4%
[libx264 @ 0x5561245be9c0] ref B L0: 72.6% 23.9%  3.5%
[libx264 @ 0x5561245be9c0] ref B L1: 90.7%  9.3%
[libx264 @ 0x5561245be9c0] kb/s:47.62
Generating experiments/test-22/visualizations/generation.mp4